<svg width="32" height="32" viewBox="0 0 32 32" fill="none" xmlns="http://www.w3.org/2000/svg">
<path d="M20.4564 11.1877C16.0429 11.1888 10.0093 11.1869 5.59643 11.1877C5.21634 11.1877 4.9082 11.4958 4.9082 11.8759V16.7617V21.6474C4.9082 22.0275 5.21634 22.3357 5.59643 22.3357C8.06549 22.3333 13.0346 22.3373 15.5031 22.3357C15.8832 22.3357 16.1914 22.0275 16.1914 21.6474V17.4499H20.4564C20.8365 17.4499 21.1447 17.1418 21.1447 16.7617V11.8759C21.1447 11.4958 20.8366 11.1877 20.4564 11.1877ZM14.8149 16.0735H11.238V12.5642H14.8149V16.0735ZM6.28466 12.5642H9.86152V16.0734H6.28466V12.5642ZM6.28466 17.45H9.86152V20.9593H6.28466V17.45ZM14.8149 20.9593H11.238V17.45H14.8149V20.9593ZM19.7682 16.0735H16.1914V12.5642H19.7682V16.0735Z" fill="#00CB8D"/>
<path d="M28.144 24.4954H26.0516V22.4031C26.0516 22.023 25.7434 21.7148 25.3633 21.7148C24.9832 21.7148 24.6751 22.023 24.6751 22.4031V24.4954H22.5828C22.2027 24.4954 21.8945 24.8036 21.8945 25.1836C21.8945 25.5637 22.2027 25.8719 22.5828 25.8719H24.6751V27.9642C24.6751 28.3443 24.9832 28.6525 25.3633 28.6525C25.7434 28.6525 26.0516 28.3443 26.0516 27.9642V25.8719H28.144C29.0568 25.8357 29.0567 24.5315 28.144 24.4954Z" fill="#00CB8D"/>
<path d="M26.052 18.5499C26.052 14.8667 26.052 6.25063 26.052 2.66571C26.052 2.28561 25.7439 1.97748 25.3638 1.97748H19.8724V0.832761C19.8724 0.452671 19.5642 0.144531 19.1842 0.144531C18.8041 0.144531 18.4959 0.452671 18.4959 0.832761V1.97748H7.07913V0.832761C7.07913 0.452671 6.77099 0.144531 6.3909 0.144531C6.01081 0.144531 5.70267 0.452671 5.70267 0.832761V1.97748H0.68823C0.308139 1.97748 0 2.28561 0 2.66571C6.25664e-05 6.49095 0 21.0977 0 25.1848C0 25.5649 0.308139 25.8731 0.68823 25.8731H18.7289C19.0744 29.2289 21.9181 31.855 25.3637 31.855C33.8025 31.5628 34.3688 19.685 26.052 18.5499ZM1.37646 3.35394H5.70267V4.49865C5.70267 4.87874 6.01081 5.18688 6.3909 5.18688C6.77099 5.18688 7.07913 4.87874 7.07913 4.49865V3.35394H18.4959V4.49865C18.4959 4.87874 18.8041 5.18688 19.1842 5.18688C19.5642 5.18688 19.8724 4.87874 19.8724 4.49865V3.35394H24.6755V7.75028H1.37646V3.35394ZM1.37646 9.12675H24.6755V18.55C21.546 18.8723 19.0511 21.3671 18.7289 24.4967H1.37646V9.12675ZM25.3638 30.4786C22.4448 30.4786 20.07 28.1038 20.07 25.1848C20.3608 18.162 30.3678 18.164 30.6575 25.1849C30.6575 28.1038 28.2827 30.4786 25.3638 30.4786Z" fill="#007C8C"/>
</svg>
