<svg width="32" height="32" viewBox="0 0 32 32" fill="none" xmlns="http://www.w3.org/2000/svg">
<g clip-path="url(#clip0_14_109363)">
<path d="M19.9778 22.0558C19.9079 22.0558 19.8374 22.0503 19.7665 22.0393C16.7737 21.5738 14.82 20.3703 14.1398 19.8921C13.4067 20.0101 12.6568 20.0694 11.8932 20.0694C8.7439 20.0694 5.77781 19.0406 3.54126 17.1726C1.26895 15.2747 0.0175781 12.7407 0.0175781 10.0373C0.0175781 7.78868 0.897248 5.6572 2.56158 3.87317C4.04816 2.27965 6.07138 1.07571 8.2585 0.483122C12.6469 -0.705813 17.3481 0.336553 20.5275 3.20357C22.6176 5.08836 23.7687 7.51529 23.7687 10.0373C23.7687 12.7927 22.4341 15.4126 20.0874 17.3018L21.2471 20.0017C21.4634 20.5053 21.3904 21.0855 21.0566 21.5159C20.7878 21.8625 20.3954 22.0557 19.9778 22.0558ZM16.0644 19.435C16.9568 19.8883 18.2795 20.4149 19.9655 20.6786C19.9825 20.6601 20.0108 20.6076 19.9836 20.5443L18.6117 17.3503C18.4749 17.0317 18.5972 16.6649 18.889 16.4897C21.1171 14.8457 22.3937 12.4972 22.3937 10.0373C22.3937 7.31034 20.8781 5.37125 19.6066 4.22475C16.7706 1.66743 12.5597 0.742323 8.61808 1.81038C5.13815 2.75324 1.39265 5.72989 1.39265 10.0373C1.39265 14.8108 6.10314 18.6943 11.8932 18.6943C13.5805 18.6943 15.2576 18.3559 16.7434 17.7157C17.092 17.5654 17.4967 17.7264 17.6469 18.0751C17.7971 18.4238 17.6362 18.8283 17.2875 18.9786C16.8872 19.151 16.4794 19.3032 16.0644 19.435Z" fill="#00CB8D"/>
<path d="M17.5064 32.0001C16.7426 32.0002 15.984 31.7448 15.3688 31.2493L13.4771 29.7257C12.875 29.2408 12.7797 28.3564 13.2646 27.7544L16.0809 24.2575C16.566 23.6554 17.4503 23.5601 18.0524 24.0451L19.7309 25.397C19.8823 25.5189 20.0956 25.529 20.2575 25.4276L26.0672 18.2141C26.1318 18.0344 26.0765 17.8281 25.925 17.7061L24.2466 16.3542C23.9549 16.1194 23.7721 15.785 23.732 15.4126C23.6919 15.0402 23.7991 14.6745 24.034 14.3829L26.8504 10.886C27.0854 10.5944 27.4197 10.4116 27.7921 10.3715C28.1645 10.3314 28.5302 10.4386 28.8218 10.6735L30.7135 12.197C31.7411 13.0247 32.1996 14.3866 31.8816 15.6666C31.4355 17.4621 29.4664 21.2266 26.6958 24.6665C23.9251 28.1067 20.6668 30.8328 19.0078 31.6512C18.5329 31.8853 18.0185 32.0001 17.5064 32.0001ZM17.1729 25.11C17.165 25.11 17.1571 25.1134 17.1518 25.1201L14.3355 28.6169C14.3262 28.6286 14.328 28.6456 14.3396 28.6549L16.2312 30.1784C16.8436 30.6715 17.6946 30.7655 18.3993 30.418C19.7074 29.7727 22.8138 27.2941 25.6247 23.8039C28.4355 20.3139 30.1952 16.7506 30.5469 15.335C30.7364 14.5725 30.4632 13.7611 29.8508 13.2679L27.9592 11.7444C27.9563 11.7421 27.9502 11.7375 27.9393 11.7386C27.9282 11.7398 27.9235 11.7456 27.9213 11.7485L25.1049 15.2453C25.1026 15.2481 25.0979 15.254 25.099 15.2651C25.1003 15.2762 25.1061 15.2809 25.1089 15.2832L26.7874 16.6351C27.4562 17.1738 27.6599 18.1208 27.2716 18.887C27.2499 18.9298 27.2238 18.9701 27.1938 19.0074L21.2727 26.3593C21.2426 26.3966 21.2087 26.4307 21.1716 26.4609C20.5058 27.0036 19.5372 27.0066 18.8683 26.4679L17.1898 25.116C17.1849 25.1119 17.1789 25.11 17.1729 25.11Z" fill="#007C8C"/>
<path d="M11.6019 13.3965C10.2157 13.3965 9.00622 12.5083 8.59214 11.1862C8.4787 10.8239 8.6804 10.4381 9.04273 10.3246C9.40524 10.211 9.79089 10.4129 9.90433 10.7753C10.1378 11.5206 10.8199 12.0215 11.6019 12.0215C12.3838 12.0215 13.0659 11.5206 13.2994 10.7753C13.4128 10.4129 13.7984 10.2111 14.161 10.3246C14.5233 10.4381 14.725 10.8238 14.6116 11.1862C14.1976 12.5083 12.988 13.3965 11.6019 13.3965Z" fill="#007C8C"/>
<path d="M6.96507 10.0791C6.42405 10.0852 6.08709 9.4565 6.39373 9.01029C6.68762 8.55595 7.39928 8.62577 7.6001 9.12842C7.66998 9.29542 7.66998 9.48768 7.6001 9.65469C7.49885 9.90764 7.23721 10.0817 6.96507 10.0791Z" fill="#007C8C"/>
<path d="M16.2188 10.0793C15.7417 10.0904 15.3894 9.56507 15.5838 9.12867C15.7555 8.68352 16.3749 8.56114 16.7045 8.90553C17.1356 9.33399 16.8263 10.0807 16.2188 10.0793Z" fill="#007C8C"/>
</g>
<defs>
<clipPath id="clip0_14_109363">
<rect width="32" height="32" fill="white"/>
</clipPath>
</defs>
</svg>
