<svg width="32" height="32" viewBox="0 0 32 32" fill="none" xmlns="http://www.w3.org/2000/svg">
<g clip-path="url(#clip0_14_109377)">
<path d="M21.19 16.6094H10.8086C10.4289 16.6094 10.1211 16.9172 10.1211 17.2969V30.2736H11.4961V17.9844H20.5025V21.8001H18.5947C18.215 21.8001 17.9072 22.1079 17.9072 22.4876C17.9072 22.8672 18.215 23.1751 18.5947 23.1751H20.5025V30.2736H21.8775V17.2969C21.8775 16.9172 21.5697 16.6094 21.19 16.6094Z" fill="#00CB8D"/>
<path d="M31.3125 29.5878H29.4047V13.9876L30.8681 15.2277C30.9973 15.3371 31.1551 15.3907 31.3122 15.3907C31.5073 15.3907 31.7011 15.3081 31.837 15.1477C32.0825 14.858 32.0467 14.4242 31.757 14.1787L16.4445 1.202C16.188 0.98475 15.812 0.98475 15.5555 1.202L0.243015 14.1787C-0.0466727 14.4242 -0.0824227 14.8581 0.163015 15.1477C0.408515 15.4373 0.842327 15.4731 1.13195 15.2277L2.59533 13.9876V29.5878H0.687515C0.307827 29.5878 1.48307e-05 29.8956 1.48307e-05 30.2753C1.48307e-05 30.6549 0.307827 30.9628 0.687515 30.9628H31.3125C31.6922 30.9628 32 30.6549 32 30.2753C32 29.8956 31.6922 29.5878 31.3125 29.5878ZM3.97039 12.8223L16 2.62769L28.0297 12.8223V29.5878H3.97039V12.8223Z" fill="#007C8C"/>
</g>
<defs>
<clipPath id="clip0_14_109377">
<rect width="32" height="32" fill="white"/>
</clipPath>
</defs>
</svg>
