<svg width="32" height="32" viewBox="0 0 32 32" fill="none" xmlns="http://www.w3.org/2000/svg">
<g clip-path="url(#clip0_14_109353)">
<path d="M18.6166 6.29656C18.6166 4.91394 17.4917 3.78906 16.1091 3.78906C14.7264 3.78906 13.6016 4.91394 13.6016 6.29656C13.6016 7.67919 14.7264 8.80406 16.1091 8.80406C17.4917 8.804 18.6166 7.67919 18.6166 6.29656ZM16.1091 7.429C15.4846 7.429 14.9766 6.921 14.9766 6.2965C14.9766 5.67206 15.4846 5.164 16.1091 5.164C16.7335 5.164 17.2416 5.672 17.2416 6.2965C17.2416 6.921 16.7335 7.429 16.1091 7.429Z" fill="#00CB8D"/>
<path d="M23.7725 5.09625L22.5422 4.21744V0.90077C22.5422 0.521084 22.2344 0.213273 21.8547 0.213273H19.9388C19.5591 0.213273 19.2513 0.521084 19.2513 0.90077V1.86683L17.0694 0.308272C16.4946 -0.102726 15.7222 -0.102726 15.1476 0.308085L8.44418 5.09625C8.13525 5.31694 8.06369 5.74631 8.28431 6.05531C8.505 6.36431 8.93443 6.43587 9.24337 6.21519L9.67437 5.90731V14.0956C9.67437 14.4753 9.98218 14.7831 10.3619 14.7831H14.6824C15.0621 14.7831 15.3699 14.4753 15.3699 14.0956C15.3699 13.7159 15.0621 13.4081 14.6824 13.4081H11.0494V4.92513L15.947 1.42677C16.0435 1.35783 16.1732 1.35783 16.2698 1.42696L21.1671 4.92507V13.408H17.561C17.1813 13.408 16.8735 13.7158 16.8735 14.0955C16.8735 14.4752 17.1813 14.783 17.561 14.783H21.8546C22.2343 14.783 22.5421 14.4752 22.5421 14.0955V5.90719L22.9733 6.21512C23.0944 6.30162 23.2339 6.34325 23.3722 6.34325C23.5868 6.34325 23.7981 6.24312 23.9323 6.05531C24.1531 5.74631 24.0814 5.31694 23.7725 5.09625ZM21.1672 3.23532L20.6263 2.84895V1.58827H21.1672V3.23532Z" fill="#00CB8D"/>
<path d="M22.6271 19.9775C22.6271 19.5715 22.2811 19.2264 21.8766 19.2264C21.4624 19.2264 21.1255 19.5633 21.1255 19.9775L21.1253 21.7228C21.1253 22.1025 20.8175 22.4103 20.4378 22.4103C20.0581 22.4103 19.7503 22.1025 19.7503 21.7228C19.7503 21.7228 19.7505 19.4362 19.7505 19.4336C19.7506 19.0237 19.4092 18.6825 18.9994 18.6825C18.5852 18.6825 18.2482 19.0195 18.2482 19.4336L18.2483 21.7228C18.2483 22.1025 17.9405 22.4103 17.5608 22.4103C17.1811 22.4103 16.8733 22.1025 16.8733 21.7228C16.8733 21.7228 16.8732 10.6946 16.8732 10.6879C16.8732 10.2786 16.5318 9.93743 16.1228 9.93743C15.7167 9.93743 15.372 10.2831 15.3723 10.688L15.371 21.9223C15.371 22.5249 14.9516 23.0502 14.351 23.1998C13.7601 23.3468 13.1711 23.0834 12.8849 22.5444C12.7126 22.2203 12.5599 21.8974 12.4123 21.5853C11.8677 20.4335 11.4375 19.5238 10.3458 19.0194C9.88236 18.8054 9.54361 18.8426 9.41348 18.9746C9.34598 19.043 9.36573 19.1083 9.38636 19.1516C10.2556 20.9698 10.822 22.4979 11.4216 24.1158C11.7047 24.8797 11.9975 25.6696 12.3241 26.4894C12.5 26.9304 12.9637 27.3199 13.4122 27.6966C13.6754 27.9177 13.924 28.1264 14.13 28.3564C14.9459 29.2672 15.2761 30.0577 15.3481 31.273C15.3706 31.652 15.0816 31.9775 14.7026 32C14.6887 32.0008 14.675 32.0013 14.6612 32.0013C14.3002 32.0013 13.9972 31.7197 13.9755 31.3545C13.9222 30.4548 13.7108 29.9493 13.1058 29.2739C12.9649 29.1166 12.7526 28.9383 12.5278 28.7495C12.0033 28.3091 11.3507 27.761 11.0467 26.9986C10.7139 26.163 10.4182 25.3652 10.1322 24.5936C9.54373 23.0059 8.98792 21.5063 8.14593 19.745C7.86337 19.155 7.97649 18.4734 8.4343 18.0091C8.88861 17.5485 9.78067 17.2441 10.9222 17.7712C12.4671 18.4848 13.0712 19.7622 13.6553 20.9975C13.7648 21.2292 13.8773 21.467 13.9959 21.7006C13.9959 21.7006 13.9972 10.6932 13.9972 10.6886C13.9973 9.53118 14.9668 8.5625 16.1226 8.5625C17.2785 8.5625 18.2481 9.53393 18.2481 10.688V17.445C18.4818 17.3565 18.7348 17.3076 18.9993 17.3076C19.5664 17.3076 20.1003 17.5285 20.5023 17.9296C20.5843 18.0117 20.6584 18.0995 20.725 18.1916C21.0571 17.9768 21.4523 17.8515 21.8764 17.8515C22.4447 17.8515 22.9787 18.073 23.38 18.4751C23.4907 18.5859 23.5877 18.7068 23.6702 18.8358C23.9946 18.6431 24.3659 18.5403 24.753 18.5403C25.3211 18.5403 25.8551 18.7613 26.2566 19.1627C26.6583 19.5654 26.8792 20.0991 26.8792 20.6664V27.6529C26.8792 28.3124 26.5902 28.9344 26.0863 29.3597C25.9912 29.44 25.9133 29.5418 25.8612 29.6539C25.8084 29.7674 25.7816 29.8892 25.7816 30.0158V31.3138C25.7816 31.6935 25.4738 32.0013 25.0941 32.0013C24.7144 32.0013 24.4066 31.6935 24.4066 31.3138V30.0158C24.4066 29.6875 24.4765 29.3707 24.6144 29.0742C24.7502 28.782 24.9525 28.5174 25.1995 28.3089C25.3932 28.1455 25.5042 27.9064 25.5042 27.6529C25.5042 27.6529 25.5042 20.6757 25.5042 20.6664C25.5042 20.2652 25.1526 19.9153 24.7531 19.9153C24.3499 19.9153 24.002 20.2649 24.002 20.6664C24.002 20.6734 24.0012 20.6802 24.0009 20.6871C24.0012 20.6957 24.0022 20.7041 24.0022 20.7128V21.7229C24.0022 22.1026 23.6944 22.4104 23.3147 22.4104C22.9351 22.4104 22.6272 22.1026 22.6272 21.7229C22.6274 21.7229 22.6271 19.9808 22.6271 19.9775Z" fill="#007C8C"/>
<path d="M5.9435 12.8599C5.81044 12.8599 5.67781 12.8214 5.56294 12.745L2.68981 10.8356C2.49819 10.7082 2.383 10.4935 2.38281 10.2635C2.38269 10.0334 2.49756 9.81855 2.68894 9.69099L5.56206 7.77562C5.773 7.63499 6.04425 7.62187 6.26781 7.74149C6.49137 7.86112 6.63094 8.09412 6.63094 8.34762V12.1724C6.63094 12.4258 6.49156 12.6586 6.26825 12.7784C6.16656 12.8329 6.05494 12.8599 5.9435 12.8599ZM4.31112 10.2621L5.256 10.8901V9.63224L4.31112 10.2621Z" fill="#007C8C"/>
<path d="M26.0546 12.86C25.9433 12.86 25.8316 12.8329 25.7299 12.7784C25.5066 12.6587 25.3672 12.4258 25.3672 12.1725V8.34766C25.3672 8.0941 25.5067 7.86116 25.7303 7.74154C25.9539 7.62185 26.2252 7.63498 26.4361 7.77566L29.3092 9.69104C29.5006 9.81866 29.6155 10.0335 29.6153 10.2635C29.6151 10.4936 29.4999 10.7083 29.3084 10.8356L26.4353 12.745C26.3204 12.8214 26.1877 12.86 26.0546 12.86ZM26.7422 9.63229V10.8901L27.6871 10.2622L26.7422 9.63229Z" fill="#007C8C"/>
</g>
<defs>
<clipPath id="clip0_14_109353">
<rect width="32" height="32" fill="white"/>
</clipPath>
</defs>
</svg>
