<svg width="32" height="32" viewBox="0 0 32 32" fill="none" xmlns="http://www.w3.org/2000/svg">
<path d="M15.9998 32C15.9193 32 15.8389 31.9859 15.7621 31.9576C12.0706 30.5976 8.92998 28.1729 6.6798 24.9459C4.42961 21.7188 3.24023 17.9336 3.24023 13.9996V3.229C3.24023 2.95238 3.40598 2.70269 3.66092 2.59538C7.75105 0.87325 11.9024 0 15.9998 0C20.0972 0 24.2485 0.87325 28.3387 2.59538C28.5936 2.70269 28.7594 2.95238 28.7594 3.229V13.9996C28.7594 17.9336 27.57 21.7189 25.3198 24.9459C23.0696 28.173 19.929 30.5976 16.2375 31.9576C16.1607 31.9859 16.0803 32 15.9998 32ZM4.61523 3.68875V13.9996C4.61523 21.3235 9.1793 27.9531 15.9998 30.5779C22.8203 27.9531 27.3844 21.3235 27.3844 13.9996V3.68875C19.8274 0.622062 12.1722 0.622062 4.61523 3.68875Z" fill="#007C8C"/>
<path d="M16 27.8622C15.8974 27.8622 15.7947 27.8392 15.6999 27.7932C13.1255 26.544 10.9526 24.594 9.41598 22.1541C7.86992 19.6993 7.05273 16.8796 7.05273 14V5.86819C7.05273 5.57119 7.24348 5.30775 7.52555 5.21506C10.3575 4.28437 13.2088 3.8125 16 3.8125C18.7913 3.8125 21.6425 4.28437 24.4745 5.215C24.7567 5.30769 24.9474 5.57113 24.9474 5.86813V14C24.9474 16.8796 24.1302 19.6993 22.5841 22.1541C21.0475 24.594 18.8745 26.5439 16.3002 27.7932C16.2054 27.8392 16.1027 27.8622 16 27.8622ZM8.42773 6.37044V14.0001C8.42773 19.1952 11.3888 24.0276 16 26.406C20.6113 24.0276 23.5724 19.1952 23.5724 14.0001V6.37044C21.0355 5.58531 18.4904 5.1875 16 5.1875C13.5097 5.1875 10.9645 5.58531 8.42773 6.37044Z" fill="#00CB8D"/>
<path d="M14.428 19.1882C14.2457 19.1882 14.0708 19.1158 13.9419 18.9868L11.6955 16.7405C11.427 16.472 11.427 16.0366 11.6955 15.7681C11.9641 15.4997 12.3993 15.4997 12.6678 15.7681L14.4281 17.5284L19.3332 12.6232C19.6018 12.3548 20.037 12.3548 20.3055 12.6232C20.574 12.8917 20.574 13.327 20.3055 13.5955L14.9142 18.9869C14.7853 19.1158 14.6103 19.1882 14.428 19.1882Z" fill="#00CB8D"/>
</svg>
