<svg width="46" height="45" viewBox="0 0 46 45" fill="none" xmlns="http://www.w3.org/2000/svg">
<g clip-path="url(#clip0_577_18131)">
<path d="M13.4933 35.6614C10.2584 35.6738 8.61759 31.6925 10.9067 29.4095C11.5974 28.7173 12.5161 28.336 13.4933 28.336C16.7277 28.3233 18.3693 32.305 16.08 34.5879C16.08 34.5879 16.08 34.5879 16.08 34.5879C15.3892 35.2802 14.4705 35.6614 13.4933 35.6614ZM13.4933 30.2693C11.9663 30.2641 11.1951 32.1459 12.2752 33.2223C12.9166 33.8921 14.07 33.8921 14.7114 33.2223C15.7918 32.1455 15.0198 30.2639 13.4933 30.2693Z" fill="#00CB8D"/>
<path d="M10.1574 22.8176C6.92252 22.83 5.28166 18.8487 7.5707 16.5657C8.26151 15.8734 9.18018 15.4922 10.1574 15.4922C13.3919 15.4795 15.0334 19.4613 12.7442 21.7441C12.0533 22.4363 11.1346 22.8176 10.1574 22.8176ZM10.1574 17.4255C8.63033 17.4203 7.85921 19.302 8.93922 20.3786C9.58073 21.0484 10.734 21.0484 11.3755 20.3786C12.4558 19.3017 11.6841 17.4202 10.1574 17.4255Z" fill="#00CB8D"/>
<path d="M26.3317 38.9805C23.0941 38.9762 21.436 35.06 23.7425 32.7387H23.7426C26.0262 30.4495 30.007 32.0908 29.9944 35.3254C30.0334 37.3153 28.2786 39.0213 26.3317 38.9805ZM25.1082 34.1071C24.4383 34.7486 24.4382 35.9019 25.1082 36.5435C26.1845 37.6236 28.0666 36.8523 28.0611 35.3253C28.0664 33.7984 26.1845 33.0269 25.1081 34.1071H25.1082Z" fill="#00CB8D"/>
<path d="M35.3703 30.8945C33.4234 30.9352 31.6687 29.2295 31.7077 27.2393C31.7077 26.2621 32.089 25.3435 32.7812 24.6527C35.0639 22.3636 39.0458 24.0047 39.0329 27.2394C39.0716 29.2296 37.3173 30.935 35.3703 30.8945ZM35.3703 25.5162C34.9272 25.5162 34.4841 25.6845 34.1468 26.0212C34.1468 26.0212 34.1468 26.0212 34.1467 26.0212C33.4768 26.6627 33.4767 27.816 34.1467 28.4576C35.2232 29.5376 37.105 28.7663 37.0996 27.2393C37.118 26.3005 36.2883 25.4969 35.3703 25.5162Z" fill="#00CB8D"/>
<path d="M18.2433 13.7786C15.0086 13.7909 13.3675 9.80973 15.6567 7.52667C16.3475 6.83437 17.2661 6.45316 18.2433 6.45316C21.4779 6.44041 23.1189 10.4222 20.83 12.705C20.1392 13.3973 19.2205 13.7786 18.2433 13.7786ZM18.2433 8.38647C16.7162 8.38128 15.945 10.2629 17.0251 11.3393C17.6666 12.0093 18.82 12.0094 19.4615 11.3394L19.4615 11.3393C20.5417 10.2627 19.7699 8.38111 18.2433 8.38647Z" fill="#00CB8D"/>
<path d="M43.4219 18.291C42.0615 17.0524 40.2395 16.4693 38.4234 16.6925C36.8436 16.886 35.4156 16.8201 34.1574 16.4998L44.1531 6.50402C45.5787 5.07847 45.5784 2.75858 44.1525 1.33241C42.7263 -0.0935775 40.4065 -0.0937534 38.9809 1.3318L28.985 11.3276C28.6652 10.0699 28.5995 8.64209 28.7932 7.06222C29.0156 5.24754 28.4329 3.42874 27.1944 2.07235C25.941 0.699519 24.1578 -0.0546477 22.2982 0.003088C16.5604 0.181656 11.1629 2.51709 7.09994 6.57916C-6.96348 20.6651 2.98762 44.8273 22.8567 44.9928C34.7288 45.3114 45.3862 35.0205 45.4841 23.1273C45.5362 21.2943 44.7846 19.5315 43.4219 18.291ZM40.348 2.69891C42.0302 1.14989 44.3356 3.45326 42.786 5.13691L29.6617 18.2612L27.2236 15.8232L40.348 2.69891ZM22.8103 27.0149C21.4084 28.4163 18.3002 28.9266 16.4189 29.066C16.5584 27.1842 17.0684 24.0763 18.4701 22.6747C19.4234 21.7214 20.3568 21.2432 21.2403 21.2432C21.9608 21.2432 22.6482 21.5613 23.2859 22.1991C24.7055 23.6188 24.5411 25.2841 22.8103 27.0149ZM25.6867 22.2363C25.2 21.2567 24.2283 20.2849 23.2488 19.7981L25.8566 17.1903L28.2947 19.6283L25.6867 22.2363ZM43.5518 23.0725C43.12 40.9729 21.0401 49.695 8.43279 36.9834C0.455419 28.9686 0.470711 15.9425 8.46688 7.94636C12.1807 4.23344 17.1141 2.09871 22.3583 1.93561C23.6513 1.89378 24.894 2.42025 25.7666 3.37601C26.6243 4.31525 27.028 5.57313 26.8743 6.82715C26.5966 9.09316 26.7891 11.1213 27.444 12.8687L20.9957 19.317C19.6613 19.3903 18.3523 20.0582 17.103 21.3076C14.4869 23.9238 14.4424 29.8242 14.4418 30.0742C14.4304 30.5941 14.8882 31.0536 15.4084 31.0432C15.6614 31.0426 21.5587 30.999 24.1773 28.3821C25.4267 27.1327 26.0945 25.8239 26.1679 24.4893L32.6165 18.0407C34.3649 18.6961 36.3932 18.8891 38.6585 18.6114C41.2386 18.2509 43.6697 20.4715 43.5518 23.0725Z" fill="#007C8C"/>
</g>
<defs>
<clipPath id="clip0_577_18131">
<rect width="45" height="45" fill="white" transform="translate(0.5)"/>
</clipPath>
</defs>
</svg>
