<svg width="46" height="45" viewBox="0 0 46 45" fill="none" xmlns="http://www.w3.org/2000/svg">
<g clip-path="url(#clip0_577_18062)">
<path d="M22.999 3.06519C22.6349 3.06519 22.3398 2.77005 22.3398 2.40601V0.65918C22.3398 0.295137 22.6349 0 22.999 0C23.3632 0 23.6582 0.295137 23.6582 0.65918V2.40601C23.6582 2.77005 23.3632 3.06519 22.999 3.06519Z" fill="#007C8C"/>
<path d="M26.2866 16.8587L23.0005 17.5764L19.7143 16.8587C19.9904 15.8055 20.2026 15.0402 20.3841 14.3858C20.8582 12.676 21.1222 11.724 21.7657 8.37391L22.9631 7.76377L24.2366 8.3812C24.8791 11.7253 25.1431 12.6772 25.6169 14.3859C25.7983 15.0402 26.0105 15.8055 26.2866 16.8587Z" stroke="#007C8C" stroke-width="1.2"/>
<path d="M21.1587 5.26233L21.1587 5.26228C20.8686 4.11767 21.7336 3.00625 22.9147 3.00625H23.0849C24.2659 3.00625 25.1309 4.11761 24.8409 5.26229L24.8409 5.26233C24.8066 5.39775 24.7714 5.53712 24.735 5.6813C24.6098 6.1768 24.4702 6.72909 24.3042 7.37298H21.6954C21.5285 6.72538 21.3882 6.17046 21.2625 5.67283C21.2268 5.53166 21.1923 5.3951 21.1587 5.26233Z" stroke="#007C8C" stroke-width="1.2"/>
<path d="M23.0003 35.1257C20.2441 35.1257 17.93 37.2013 17.6314 39.9414L17.2176 43.7392H11.4833L15.1799 31.8722L23.1533 31.0409L30.8203 31.8706L34.5174 43.7392H28.7831L28.3693 39.9414L27.7728 40.0064L28.3693 39.9414C28.0707 37.2013 25.7567 35.1257 23.0003 35.1257Z" stroke="#007C8C" stroke-width="1.2"/>
<path d="M26.6179 28.0548L26.3982 26.6293C26.2093 24.8072 24.7845 23.3498 22.9991 23.3498C21.2137 23.3498 19.7889 24.8072 19.5999 26.6293L19.3768 28.0764L17.7602 28.732L16.4739 28.1658L18.6113 20.6471L23.1498 19.8519L27.3854 20.6427L29.536 28.208L28.5824 28.7298L26.6179 28.0548Z" stroke="#007C8C" stroke-width="1.2"/>
<path d="M40.302 30.7031H40.3021C40.6216 30.7031 40.9645 30.8892 41.3241 31.3415C41.6813 31.7907 41.9993 32.4373 42.2637 33.1878C42.7923 34.6881 43.0611 36.47 43.0611 37.5551C43.0611 38.586 42.7367 39.2358 42.2779 39.6358C41.8073 40.0462 41.1246 40.2554 40.302 40.2554C39.4795 40.2554 38.7968 40.0462 38.3262 39.6358C37.8674 39.2358 37.543 38.586 37.543 37.5551C37.543 36.4607 37.7707 34.6774 38.2763 33.1819C38.5295 32.433 38.8411 31.7909 39.2025 31.3454C39.5616 30.9028 39.9263 30.7031 40.302 30.7031Z" stroke="#00CB8D"/>
<path d="M40.3026 44.5263C39.9385 44.5263 39.6434 44.21 39.6433 43.8198L39.6427 40.2928C39.6426 39.9025 39.9376 39.5861 40.3018 39.5861C40.6659 39.586 40.961 39.9023 40.9611 40.2926L40.9617 43.8195C40.9617 44.2098 40.6667 44.5262 40.3026 44.5263Z" fill="#00CB8D"/>
<path d="M40.2865 30.7032C40.2916 30.7032 40.2968 30.7031 40.302 30.7031C40.6216 30.7031 40.9644 30.8892 41.324 31.3415C41.6813 31.7908 41.9992 32.4373 42.2637 33.1879C42.7922 34.6882 43.061 36.4701 43.061 37.5551C43.061 38.586 42.7366 39.2358 42.2779 39.6358C41.8073 40.0462 41.1245 40.2554 40.302 40.2554C39.9778 40.2554 39.6757 40.2229 39.3996 40.1583C39.8266 40.0188 40.2217 39.8074 40.562 39.5106C41.2828 38.8821 41.688 37.9317 41.688 36.6762C41.688 35.817 41.5405 34.6143 41.2556 33.4224C41.0297 32.4775 40.7094 31.5052 40.2865 30.7032Z" stroke="#00CB8D"/>
<path d="M5.75907 30.7031H5.75909C6.07868 30.7031 6.42151 30.8892 6.78114 31.3415C7.13836 31.7907 7.45633 32.4373 7.72076 33.1878C8.24933 34.6881 8.51815 36.47 8.51815 37.5551C8.51815 38.586 8.19373 39.2358 7.73496 39.6358C7.26435 40.0462 6.58161 40.2554 5.75907 40.2554C4.93653 40.2554 4.25379 40.0462 3.78318 39.6358C3.32441 39.2358 3 38.586 3 37.5551C3 36.4607 3.22771 34.6774 3.73337 33.1819C3.98656 32.433 4.29812 31.7909 4.65958 31.3454C5.01863 30.9028 5.38329 30.7031 5.75907 30.7031Z" stroke="#00CB8D"/>
<path d="M5.75965 44.5263C5.39552 44.5263 5.10042 44.21 5.10035 43.8198L5.09973 40.2928C5.09966 39.9025 5.39466 39.5861 5.75879 39.5861C6.12292 39.586 6.41802 39.9023 6.41809 40.2926L6.41871 43.8195C6.41878 44.2098 6.12369 44.5262 5.75965 44.5263Z" fill="#00CB8D"/>
<path d="M5.74353 30.7032C5.74868 30.7032 5.75384 30.7031 5.759 30.7031C6.0786 30.7031 6.42144 30.8892 6.78107 31.3415C7.13829 31.7908 7.45626 32.4373 7.72069 33.1879C8.24927 34.6882 8.51808 36.4701 8.51808 37.5551C8.51808 38.586 8.19367 39.2358 7.7349 39.6358C7.26428 40.0462 6.58154 40.2554 5.759 40.2554C5.43488 40.2554 5.1327 40.2229 4.85663 40.1583C5.28364 40.0188 5.67876 39.8074 6.01907 39.5106C6.73986 38.8821 7.14503 37.9317 7.14503 36.6762C7.14503 35.817 6.99754 34.6143 6.71262 33.4224C6.48671 32.4775 6.16646 31.5052 5.74353 30.7032Z" stroke="#00CB8D"/>
<path d="M44.8408 44.998H1.15918C0.795049 44.998 0.5 44.7029 0.5 44.3389C0.5 43.9748 0.795049 43.6797 1.15918 43.6797H44.8408C45.205 43.6797 45.5 43.9748 45.5 44.3389C45.5 44.7029 45.205 44.998 44.8408 44.998Z" fill="#007C8C"/>
<path d="M14.1012 30.7027L14.1012 30.7027C14.104 30.7103 14.1112 30.7154 14.1194 30.7154H31.8792C31.8872 30.7154 31.8945 30.7104 31.8973 30.7027L32.4611 30.9079L31.8973 30.7027L32.471 29.126L14.1012 30.7027ZM14.1012 30.7027L13.5275 29.126M14.1012 30.7027L13.5275 29.126M13.5275 29.126C13.5275 29.126 13.5275 29.1259 13.5275 29.1259M13.5275 29.126L13.5275 29.1259M13.5275 29.1259C13.5262 29.1224 13.5259 29.1203 13.5258 29.1196M13.5275 29.1259L13.5258 29.1196M13.5258 29.1196C13.5257 29.1187 13.5258 29.118 13.5259 29.1172M13.5258 29.1196L13.5259 29.1172M13.5259 29.1172C13.5261 29.1154 13.5271 29.1121 13.5298 29.1082M13.5259 29.1172L13.5298 29.1082M13.5298 29.1082C13.5325 29.1044 13.5353 29.1023 13.5369 29.1015M13.5298 29.1082L13.5369 29.1015M13.5369 29.1015C13.5376 29.1011 13.5382 29.1008 13.5391 29.1006M13.5369 29.1015L13.5391 29.1006M13.5391 29.1006C13.5398 29.1004 13.5418 29.1 13.5457 29.1M13.5391 29.1006L13.5457 29.1M13.5457 29.1H32.4529M13.5457 29.1H32.4529M32.4529 29.1C32.4567 29.1 32.4587 29.1004 32.4594 29.1006M32.4529 29.1L32.4594 29.1006M32.4594 29.1006C32.4599 29.1007 32.4602 29.1009 32.4606 29.101M32.4594 29.1006L32.4606 29.101M32.4606 29.101C32.461 29.1011 32.4613 29.1013 32.4616 29.1015M32.4606 29.101L32.4616 29.1015M32.4616 29.1015C32.4632 29.1023 32.466 29.1044 32.4687 29.1082M32.4616 29.1015L32.4687 29.1082M32.4687 29.1082C32.4714 29.1121 32.4724 29.1154 32.4726 29.1172M32.4687 29.1082L32.4726 29.1172M32.4726 29.1172C32.4727 29.118 32.4728 29.1187 32.4727 29.1196M32.4726 29.1172L32.4727 29.1196M32.4727 29.1196C32.4726 29.1203 32.4723 29.1224 32.471 29.1259L32.4727 29.1196Z" stroke="#007C8C" stroke-width="1.2"/>
<path d="M17.2343 17.9379L17.2342 17.9378C17.2331 17.9344 17.2329 17.9324 17.2328 17.9316C17.2328 17.9307 17.2328 17.93 17.2329 17.9292C17.2332 17.9275 17.2343 17.9242 17.2369 17.9205C17.2396 17.9169 17.2424 17.9148 17.244 17.914C17.2447 17.9136 17.2454 17.9133 17.2463 17.9131C17.2471 17.9129 17.249 17.9125 17.2526 17.9125H28.7485C28.7521 17.9125 28.754 17.9129 28.7548 17.9131C28.7557 17.9133 28.7564 17.9136 28.7571 17.914C28.7587 17.9148 28.7615 17.9168 28.7641 17.9205C28.7668 17.9242 28.7678 17.9274 28.7681 17.9293C28.7683 17.9301 28.7683 17.9308 28.7682 17.9317C28.7682 17.9325 28.768 17.9345 28.7668 17.9379L28.2458 19.5145C28.2433 19.5224 28.2358 19.5278 28.2275 19.5278H17.7737C17.7653 19.5278 17.7579 19.5224 17.7553 19.5145L17.2343 17.9379Z" stroke="#007C8C" stroke-width="1.2"/>
</g>
<defs>
<clipPath id="clip0_577_18062">
<rect width="45" height="45" fill="white" transform="translate(0.5)"/>
</clipPath>
</defs>
</svg>
