<svg width="46" height="45" viewBox="0 0 46 45" fill="none" xmlns="http://www.w3.org/2000/svg">
<g clip-path="url(#clip0_577_18143)">
<path d="M45.4669 34.4338C45.3287 33.9181 44.7983 33.6119 44.2828 33.7502L43.5338 33.951L42.8431 31.4059C42.7036 30.8918 42.1745 30.5875 41.6599 30.7253L29.3426 34.0257L41.4478 26.7165C41.9049 26.4405 42.0517 25.8462 41.7757 25.3892C41.4996 24.9321 40.9055 24.7851 40.4484 25.0613L23.0002 35.5966L5.56187 25.0614C5.10476 24.7852 4.51045 24.9319 4.23439 25.389C3.95824 25.846 4.10492 26.4403 4.56195 26.7164L16.6631 34.0272L4.3402 30.7253C4.09104 30.6586 3.82543 30.6942 3.60263 30.8242C3.37983 30.9543 3.2182 31.1681 3.15378 31.4179L2.499 33.9597L1.71722 33.7502C1.20193 33.6118 0.671423 33.9181 0.533172 34.4338C0.395009 34.9496 0.701041 35.4797 1.21678 35.6179L19.6367 40.5535C20.9109 43.4378 25.0898 43.4365 26.3632 40.5535L44.7831 35.6179C45.2989 35.4797 45.6051 34.9496 45.4669 34.4338ZM41.666 34.4514L26.3195 38.5635C26.029 38.0348 25.6178 37.5412 25.1216 37.1585L41.2295 32.8425L41.666 34.4514ZM4.78273 32.8457L20.9102 37.167C20.4232 37.5513 20.0179 38.0463 19.7292 38.5766L4.36684 34.4602L4.78273 32.8457ZM23.0001 40.7984C22.2593 40.7984 21.6025 40.3305 21.3534 39.6438C21.6849 38.9193 22.3986 38.3244 23.0001 38.3244C23.6005 38.3244 24.3239 38.8938 24.668 39.5773C24.438 40.2999 23.7643 40.7984 23.0001 40.7984Z" fill="#007C8C"/>
<path d="M36.0743 16.1095C35.5788 16.1096 35.1569 15.7308 35.1124 15.228C33.5966 0.661129 12.4053 0.660866 10.8634 15.1653C10.8163 15.6971 10.3487 16.0904 9.81509 16.0431C9.28327 15.996 8.89031 15.5266 8.93742 14.9948C9.44604 7.88373 15.8872 2.15939 22.9999 2.28322C30.1145 2.15868 36.5332 7.95202 37.0385 15.0575C37.0856 15.5893 36.6926 16.0587 36.1608 16.1057C36.1318 16.1083 36.1028 16.1095 36.0743 16.1095Z" fill="#007C8C"/>
<path d="M23.0009 25.956C18.124 25.956 14.1562 21.9883 14.1562 17.1113C14.1562 16.5774 14.5891 16.1445 15.123 16.1445H30.8789C31.4128 16.1445 31.8456 16.5774 31.8456 17.1113C31.8456 21.9883 27.8779 25.956 23.0009 25.956ZM16.1571 18.0781C17.4273 25.9539 28.5774 25.9483 29.8446 18.0781H16.1571Z" fill="#007C8C"/>
<path d="M20.8121 13.5506C20.2781 13.5506 19.8453 13.1177 19.8453 12.5838C19.8453 11.9103 19.2974 11.3623 18.6238 11.3623C17.9503 11.3623 17.4023 11.9103 17.4023 12.5838C17.4023 13.1177 16.9695 13.5506 16.4355 13.5506C15.9016 13.5506 15.4688 13.1177 15.4688 12.5838C15.6275 8.40362 21.621 8.40511 21.7789 12.5838C21.7789 13.1177 21.346 13.5506 20.8121 13.5506Z" fill="#007C8C"/>
<path d="M29.564 13.5506C29.0301 13.5506 28.5972 13.1177 28.5972 12.5838C28.5972 11.9103 28.0493 11.3623 27.3757 11.3623C26.7022 11.3623 26.1543 11.9103 26.1543 12.5838C26.1543 13.1177 25.7214 13.5506 25.1875 13.5506C24.6536 13.5506 24.2207 13.1177 24.2207 12.5838C24.3794 8.40353 30.373 8.4052 30.5309 12.5838C30.5308 13.1177 30.0979 13.5506 29.564 13.5506Z" fill="#007C8C"/>
<path d="M22.9993 30.4772C17.0738 30.5537 11.4093 26.3953 9.59558 20.7556C9.42542 20.2494 9.69788 19.7012 10.204 19.5312C10.7105 19.3612 11.2584 19.6336 11.4284 20.1397C15.3357 31.2817 30.6725 31.2607 34.5653 20.0842C34.7357 19.5784 35.2841 19.3062 35.7901 19.4766C36.2961 19.6469 36.5682 20.1953 36.3978 20.7013C34.5837 26.335 28.9203 30.5548 22.9993 30.4772Z" fill="#007C8C"/>
<path d="M37.6705 22.4414C36.6524 22.4414 35.6951 22.0449 34.9752 21.325C33.693 20.0428 33.5308 17.4701 33.4233 15.7678C33.4149 15.6345 33.4068 15.5076 33.3987 15.3886C33.3797 15.1099 33.4821 14.8365 33.6796 14.6389C33.8772 14.4413 34.1509 14.3388 34.4293 14.358C34.5484 14.3662 34.6754 14.3742 34.8086 14.3825C36.5109 14.4899 39.0834 14.6522 40.3657 15.9344C41.8517 17.4205 41.8515 19.8387 40.3657 21.3249C39.6457 22.0449 38.6886 22.4414 37.6705 22.4414ZM35.4017 16.361C35.499 17.6279 35.7075 19.3227 36.3425 19.9577C37.0415 20.6862 38.2993 20.6862 38.9983 19.9578C39.7306 19.2255 39.7306 18.0339 38.9983 17.3017C38.3632 16.6667 36.6685 16.4583 35.4017 16.361Z" fill="#00CB8D"/>
<path d="M8.32939 22.4411C7.31127 22.4411 6.35405 22.0446 5.63414 21.3247C4.148 19.8386 4.148 17.4204 5.63414 15.9342C6.91637 14.652 9.48885 14.4897 11.1912 14.3823C11.3245 14.3739 11.4514 14.3659 11.5704 14.3578C11.8499 14.3383 12.1226 14.4411 12.3202 14.6387C12.5177 14.8363 12.6201 15.1096 12.6011 15.3884C12.5929 15.5075 12.5848 15.6343 12.5765 15.7676C12.4405 18.6522 11.988 22.3594 8.32939 22.4411ZM7.00136 19.9575C7.70036 20.686 8.95825 20.686 9.65724 19.9576C10.2923 19.3225 10.5008 17.6277 10.598 16.3608C9.33117 16.4581 7.63646 16.6665 7.00136 17.3016C6.26915 18.0337 6.26924 19.2252 7.00136 19.9575Z" fill="#00CB8D"/>
</g>
<defs>
<clipPath id="clip0_577_18143">
<rect width="45" height="45" fill="white" transform="translate(0.5)"/>
</clipPath>
</defs>
</svg>
