<svg width="45" height="45" viewBox="0 0 45 45" fill="none" xmlns="http://www.w3.org/2000/svg">
<g clip-path="url(#clip0_577_18157)">
<path d="M36.521 27.0876L27.1786 24.6487V22.8545C29.375 21.3554 30.82 18.8325 30.82 15.9785V11.7559C30.82 11.2219 30.3871 10.7891 29.8532 10.7891C29.3192 10.7891 28.8864 11.2219 28.8864 11.7559V15.9785C28.8864 19.4997 26.0216 22.3645 22.5004 22.3645C18.9792 22.3645 16.1144 19.4997 16.1144 15.9785V11.8521C16.1144 11.3182 15.6815 10.8853 15.1476 10.8853C14.6136 10.8853 14.1808 11.3182 14.1808 11.8521V15.9785C14.1808 18.8531 15.6464 21.3917 17.8696 22.8869V24.6481L17.2731 24.8033C17.2263 24.8118 17.1808 24.8238 17.1366 24.8388L8.48537 27.0901C5.24186 27.9342 2.97656 30.8644 2.97656 34.216V44.0324C2.97656 44.5663 3.40942 44.9992 3.94336 44.9992H41.0575C41.5915 44.9992 42.0243 44.5663 42.0243 44.0324V34.2119C42.0243 30.8631 39.7613 27.9334 36.521 27.0876ZM22.5004 24.298C23.4618 24.298 24.3853 24.1336 25.245 23.8322V25.3954C25.245 25.8353 25.542 26.2198 25.9676 26.3309L26.5472 26.4823C26.2117 28.438 24.5253 29.9301 22.5004 29.9301C20.4925 29.9301 18.8193 28.4415 18.4788 26.4876L19.0799 26.3311C19.5059 26.2203 19.8032 25.8357 19.8032 25.3955V23.849C20.6494 24.1398 21.5567 24.298 22.5004 24.298ZM8.97229 28.9613L16.602 26.9759C17.1614 29.7613 19.5935 31.8637 22.5004 31.8637C25.4236 31.8637 27.868 29.7585 28.4237 26.9721L36.0326 28.9584C38.422 29.5822 40.0907 31.7425 40.0907 34.2118V36.8506H35.7218V35.5588C35.7218 35.0249 35.2889 34.592 34.755 34.592C34.2211 34.592 33.7882 35.0249 33.7882 35.5588V43.0654H11.2125V35.5588C11.2125 35.0249 10.7797 34.592 10.2457 34.592C9.7118 34.592 9.27894 35.0249 9.27894 35.5588V36.8506H4.91016V34.2158C4.91016 31.7445 6.58061 29.5838 8.97229 28.9613ZM4.91016 38.7842H9.27894V43.0655H4.91016V38.7842ZM35.7219 43.0656V38.7843H40.0908V43.0656H35.7219Z" fill="#007C8C"/>
<path d="M30.8192 7.03906V3.4446C30.8192 2.40081 30.354 1.42531 29.5429 0.768419C28.7317 0.111437 27.6806 -0.140985 26.6598 0.0761049L22.7939 0.897619C22.5987 0.939103 22.4007 0.939103 22.2055 0.897619L18.3396 0.0761049C17.3187 -0.140897 16.2677 0.111437 15.4566 0.768419C14.6454 1.42531 14.1801 2.40072 14.1801 3.4446V7.03906C12.8911 7.2507 11.9043 8.3721 11.9043 9.72008C11.9043 11.2185 13.1233 12.4376 14.6217 12.4376H30.3777C31.8761 12.4376 33.0952 11.2185 33.0952 9.72008C33.0952 8.3721 32.1083 7.2507 30.8192 7.03906ZM16.6733 2.271C17.029 1.98298 17.4899 1.87233 17.9376 1.96742L21.8034 2.78894C22.2655 2.88711 22.7338 2.88711 23.1957 2.78894L27.0616 1.96742C27.5093 1.87241 27.9701 1.98298 28.3259 2.271C28.6816 2.55902 28.8856 2.98678 28.8856 3.44451V7.00259H16.1136V3.4446C16.1136 2.98687 16.3177 2.5591 16.6733 2.271ZM30.3777 10.504H14.6217C14.1895 10.504 13.8379 10.1523 13.8379 9.72008C13.8379 9.28783 14.1895 8.93618 14.6217 8.93618H30.3777C30.8099 8.93618 31.1616 9.28783 31.1616 9.72008C31.1616 10.1523 30.8099 10.504 30.3777 10.504Z" fill="#00CB8D"/>
<path d="M44.8073 15.0129C44.0342 13.9833 42.9916 13.1917 41.7923 12.7236L41.2489 12.5115C40.9514 12.3953 40.6157 12.4337 40.352 12.6138C40.0883 12.794 39.9306 13.0928 39.9306 13.4121V16.6746C39.4319 16.4129 38.8651 16.2641 38.2641 16.2641C36.2791 16.2641 34.6641 17.8791 34.6641 19.8642C34.6641 21.8492 36.2791 23.4642 38.2641 23.4642C40.2492 23.4642 41.8642 21.8492 41.8642 19.8642V14.9078C42.4039 15.2356 42.8782 15.6643 43.2609 16.1739C43.5814 16.6009 44.1875 16.6872 44.6145 16.3666C45.0416 16.0459 45.1278 15.4399 44.8073 15.0129ZM38.2642 21.5306C37.3453 21.5306 36.5977 20.783 36.5977 19.8642C36.5977 18.9453 37.3453 18.1977 38.2642 18.1977C39.183 18.1977 39.9306 18.9453 39.9306 19.8642C39.9306 20.783 39.183 21.5306 38.2642 21.5306Z" fill="#00CB8D"/>
<path d="M10.1431 2.56752C9.37002 1.53788 8.32746 0.74625 7.12811 0.278233L6.58468 0.0661528C6.28717 -0.0499507 5.95151 -0.0116304 5.68784 0.168545C5.42417 0.348721 5.26649 0.647461 5.26649 0.966768V4.22909C4.7678 3.96753 4.20117 3.81864 3.60009 3.81864C1.61499 3.81873 0 5.43372 0 7.41873C0 9.40383 1.61499 11.0188 3.6 11.0188C5.58501 11.0188 7.20009 9.40383 7.20009 7.41873V2.46232C7.73982 2.79006 8.21417 3.21879 8.59693 3.72847C8.91756 4.15544 9.52365 4.24166 9.95054 3.92104C10.3775 3.6005 10.4637 2.99449 10.1431 2.56752ZM3.6 9.08523C2.68119 9.08523 1.93359 8.33763 1.93359 7.41873C1.93359 6.49983 2.68119 5.75224 3.6 5.75224C4.5189 5.75224 5.26641 6.49983 5.26641 7.41873C5.26649 8.33763 4.5189 9.08523 3.6 9.08523Z" fill="#00CB8D"/>
</g>
<defs>
<clipPath id="clip0_577_18157">
<rect width="45" height="45" fill="white"/>
</clipPath>
</defs>
</svg>
