<svg width="46" height="45" viewBox="0 0 46 45" fill="none" xmlns="http://www.w3.org/2000/svg">
<path fill-rule="evenodd" clip-rule="evenodd" d="M19.528 37.5178V19.6711C18.394 19.5454 17.3951 18.9704 16.7141 18.1281C16.4468 18.4592 16.1307 18.7481 15.7762 18.9854V27.6691C15.7762 28.1869 15.3559 28.6071 14.8382 28.6071C14.3204 28.6071 13.9002 28.1869 13.9002 27.6691V19.6711C13.7464 19.688 13.5897 19.6964 13.4312 19.6964C12.1049 19.6964 10.9222 19.0849 10.1483 18.1281C9.88102 18.4592 9.56492 18.7481 9.21037 18.9854V32.359C9.21037 32.8767 8.79016 33.297 8.2724 33.297C7.75464 33.297 7.33443 32.8767 7.33443 32.359V19.6711C7.1806 19.688 7.02396 19.6964 6.86545 19.6964C4.5346 19.6964 2.64459 17.8064 2.64459 15.4755V12.202C2.6399 11.7771 2.92501 11.3954 3.34429 11.2856C10.199 9.48943 18.681 6.05646 21.9789 2.47061C22.3588 2.0579 22.825 1.875 23.2799 1.875C23.7348 1.875 24.201 2.0579 24.5809 2.47061C27.8788 6.05646 36.3608 9.48943 43.2155 11.2856C43.6348 11.3954 43.9199 11.7771 43.9152 12.202V15.4755C43.9152 17.8064 42.0252 19.6964 39.6944 19.6964C39.5358 19.6964 39.3792 19.688 39.2254 19.6711V32.359C39.2254 32.8767 38.8052 33.297 38.2874 33.297C37.7696 33.297 37.3494 32.8767 37.3494 32.359V18.9854C36.9949 18.7481 36.6788 18.4592 36.4115 18.1281C35.6376 19.0849 34.4549 19.6964 33.1286 19.6964C32.9701 19.6964 32.8134 19.688 32.6596 19.6711V27.6691C32.6596 28.1869 32.2394 28.6071 31.7216 28.6071C31.2039 28.6071 30.7837 28.1869 30.7837 27.6691V18.9854C30.4291 18.7481 30.113 18.4592 29.8457 18.1281C29.1647 18.9704 28.1658 19.5454 27.0318 19.6711V37.5178H41.5703C42.1922 37.5178 42.7887 37.7654 43.2286 38.2044C43.6676 38.6443 43.9152 39.2409 43.9152 39.8627V40.8007C43.9152 41.4226 43.6676 42.0191 43.2286 42.459C42.7887 42.898 42.1922 43.1456 41.5703 43.1456H4.98951C3.70355 43.1456 2.64459 42.0867 2.64459 40.8007V39.8627C2.64459 39.2409 2.89221 38.6443 3.33118 38.2044C3.77108 37.7654 4.36764 37.5178 4.98951 37.5178H19.528ZM4.98951 39.3938H41.5703C41.695 39.3938 41.8142 39.4435 41.9023 39.5307C41.9896 39.6189 42.0393 39.738 42.0393 39.8627V40.8007C42.0393 40.9255 41.9896 41.0446 41.9023 41.1327C41.8142 41.22 41.695 41.2697 41.5703 41.2697H4.98951C4.73251 41.2697 4.52053 41.0577 4.52053 40.8007V39.8627C4.52053 39.738 4.57023 39.6189 4.65747 39.5307C4.74563 39.4435 4.86476 39.3938 4.98951 39.3938ZM25.1558 37.5178V19.4563C24.413 19.1937 23.7658 18.7294 23.2799 18.1281C22.794 18.7294 22.1468 19.1937 21.404 19.4563V37.5178H25.1558ZM42.0393 13.1306V15.4755C42.0393 16.7709 40.9897 17.8205 39.6944 17.8205C38.399 17.8205 37.3494 16.7709 37.3494 15.4755C37.3494 14.9578 36.9292 14.5376 36.4115 14.5376C35.8937 14.5376 35.4735 14.9578 35.4735 15.4755C35.4735 16.7709 34.4239 17.8205 33.1286 17.8205C31.8332 17.8205 30.7837 16.7709 30.7837 15.4755C30.7837 14.9578 30.3634 14.5376 29.8457 14.5376C29.3279 14.5376 28.9077 14.9578 28.9077 15.4755C28.9077 16.7709 27.8581 17.8205 26.5628 17.8205C25.2675 17.8205 24.2179 16.7709 24.2179 15.4755C24.2179 14.9578 23.7977 14.5376 23.2799 14.5376C22.7621 14.5376 22.3419 14.9578 22.3419 15.4755C22.3419 16.7709 21.2923 17.8205 19.997 17.8205C18.7017 17.8205 17.6521 16.7709 17.6521 15.4755C17.6521 14.9578 17.2319 14.5376 16.7141 14.5376C16.1964 14.5376 15.7762 14.9578 15.7762 15.4755C15.7762 16.7709 14.7266 17.8205 13.4312 17.8205C12.1359 17.8205 11.0863 16.7709 11.0863 15.4755C11.0863 14.9578 10.6661 14.5376 10.1483 14.5376C9.63058 14.5376 9.21037 14.9578 9.21037 15.4755C9.21037 16.7709 8.16078 17.8205 6.86545 17.8205C5.57011 17.8205 4.52053 16.7709 4.52053 15.4755V13.1306H42.0393ZM23.2808 3.82598C25.8537 6.56484 31.2761 9.26807 36.8064 11.2537C36.8082 11.2547 9.7516 11.2547 9.7516 11.2547C15.2781 9.26995 20.6986 6.5686 23.2808 3.82598Z" fill="#007C8C"/>
<path fill-rule="evenodd" clip-rule="evenodd" d="M6.39547 31.8906C5.36652 31.8906 4.51953 32.7376 4.51953 33.7666V34.7045C4.51953 35.2017 4.71744 35.6791 5.06918 36.0308C5.42092 36.3826 5.89835 36.5805 6.39547 36.5805H10.1473C11.1763 36.5805 12.0233 35.7335 12.0233 34.7045V33.7666C12.0233 33.2694 11.8254 32.792 11.4736 32.4403C11.1219 32.0885 10.6445 31.8906 10.1473 31.8906H6.39547ZM6.39547 33.7666H10.1473C10.002 33.7666 10.0873 33.8266 10.1473 33.8416V34.7045H6.39547C6.54085 34.7045 6.4555 34.6445 6.39547 34.6295V33.7666Z" fill="#00CB8D"/>
<path fill-rule="evenodd" clip-rule="evenodd" d="M12.9619 27.1992C11.9329 27.1992 11.0859 28.0462 11.0859 29.0752V30.0131C11.0859 30.5102 11.2838 30.9877 11.6356 31.3394C11.9873 31.6912 12.4648 31.8891 12.9619 31.8891H16.7137C17.7427 31.8891 18.5897 31.0421 18.5897 30.0131V29.0752C18.5897 28.578 18.3918 28.1006 18.04 27.7489C17.6883 27.3971 17.2109 27.1992 16.7137 27.1992H12.9619ZM12.9619 29.0752H16.7137C16.5684 29.0752 16.6537 29.1352 16.7137 29.1502V30.0131H12.9619C13.1073 30.0131 13.0219 29.9531 12.9619 29.9381V29.0752Z" fill="#00CB8D"/>
<path fill-rule="evenodd" clip-rule="evenodd" d="M40.163 31.8906H36.4111C35.3821 31.8906 34.5352 32.7376 34.5352 33.7666V34.7045C34.5352 35.2017 34.7331 35.6791 35.0848 36.0308C35.4365 36.3826 35.914 36.5805 36.4111 36.5805H40.163C41.1919 36.5805 42.0389 35.7335 42.0389 34.7045V33.7666C42.0389 33.2694 41.841 32.792 41.4893 32.4403C41.1375 32.0885 40.6601 31.8906 40.163 31.8906ZM36.4111 33.7666H40.163C40.0176 33.7666 40.1029 33.8266 40.163 33.8416V34.7045H36.4111C36.5565 34.7045 36.4711 34.6445 36.4111 34.6295V33.7666Z" fill="#00CB8D"/>
<path fill-rule="evenodd" clip-rule="evenodd" d="M33.5985 27.1992H29.8466C28.8177 27.1992 27.9707 28.0462 27.9707 29.0752V30.0131C27.9707 30.5102 28.1686 30.9877 28.5204 31.3394C28.8721 31.6912 29.3495 31.8891 29.8466 31.8891H33.5985C34.6275 31.8891 35.4745 31.0421 35.4745 30.0131V29.0752C35.4745 28.578 35.2765 28.1006 34.9248 27.7489C34.5731 27.3971 34.0956 27.1992 33.5985 27.1992ZM29.8466 29.0752H33.5985C33.4531 29.0752 33.5385 29.1352 33.5985 29.1502V30.0131H29.8466C29.992 30.0131 29.9067 29.9531 29.8466 29.9381V29.0752Z" fill="#00CB8D"/>
</svg>
