<svg width="46" height="45" viewBox="0 0 46 45" fill="none" xmlns="http://www.w3.org/2000/svg">
<g clip-path="url(#clip0_577_18119)">
<path d="M14.9258 34.5332C12.2528 34.5332 10.0781 32.3586 10.0781 29.6855C10.0781 29.1516 10.511 28.7188 11.0449 28.7188C11.5789 28.7188 12.0117 29.1516 12.0117 29.6855C12.0117 31.2924 13.319 32.5996 14.9258 32.5996C16.5326 32.5996 17.8399 31.2924 17.8399 29.6855C17.8399 29.1516 18.2728 28.7188 18.8067 28.7188C19.3407 28.7188 19.7735 29.1516 19.7735 29.6855C19.7735 32.3587 17.5988 34.5332 14.9258 34.5332Z" fill="#00CB8D"/>
<path d="M31.0754 34.9052C30.9818 34.9052 30.8882 34.8916 30.7976 34.8644C29.3279 34.4235 27.9092 33.8115 26.5809 33.0455C26.1183 32.7787 25.9596 32.1875 26.2263 31.725C26.4931 31.2625 27.0841 31.1036 27.5468 31.3705C28.662 32.0136 29.8478 32.5365 31.0756 32.9267C38.5592 30.5527 43.5669 23.7268 43.5669 15.8501V2.91988C35.3668 5.14229 26.784 5.14229 18.584 2.91988V12.9561C18.584 13.4901 18.1511 13.9229 17.6172 13.9229C17.0833 13.9229 16.6504 13.4901 16.6504 12.9561V1.63861C16.6504 1.33302 16.7949 1.04535 17.0401 0.862979C17.2854 0.680518 17.6025 0.624971 17.895 0.712598C26.5177 3.29939 35.6332 3.29939 44.2559 0.712598C44.549 0.624883 44.8657 0.680606 45.1109 0.862979C45.356 1.04544 45.5006 1.33302 45.5006 1.63861V15.8501C45.5006 20.1515 44.1435 24.2491 41.5758 27.7001C39.0082 31.1511 35.4733 33.6284 31.3533 34.8644C31.2626 34.8916 31.169 34.9052 31.0754 34.9052Z" fill="#00CB8D"/>
<path d="M39.1481 13.3716C38.9638 13.3716 38.7775 13.319 38.6127 13.2091L34.5752 10.5174C34.1309 10.2212 34.0108 9.62104 34.307 9.17675C34.6031 8.73238 35.2035 8.61241 35.6477 8.9086L39.6852 11.6002C40.1295 11.8964 40.2496 12.4966 39.9534 12.9409C39.7671 13.2204 39.4605 13.3716 39.1481 13.3716Z" fill="#007C8C"/>
<path d="M31.075 16.8228C30.4892 16.8228 29.9087 16.9046 29.3501 17.0619V11.0605C29.3501 10.7549 29.2055 10.4673 28.9604 10.2849C28.7153 10.1025 28.3985 10.0467 28.1054 10.1345C19.4828 12.7213 10.3672 12.7213 1.74453 10.1345C1.45194 10.0468 1.13483 10.1025 0.889619 10.2849C0.644492 10.4673 0.5 10.7549 0.5 11.0605V25.272C0.5 29.5734 1.85712 33.671 4.42476 37.122C6.99239 40.573 10.5273 43.0503 14.6472 44.2864C14.7378 44.3135 14.8314 44.3271 14.925 44.3271C15.0187 44.3271 15.1123 44.3135 15.2029 44.2864C19.3228 43.0503 22.8577 40.573 25.4253 37.122C27.993 33.6711 29.3501 29.5734 29.3501 25.272V19.1072C29.8926 18.8773 30.4797 18.7564 31.075 18.7564C33.5102 18.7564 35.4915 20.7376 35.4915 23.1729C35.4915 23.7068 35.9243 24.1397 36.4583 24.1397C36.9922 24.1397 37.425 23.7068 37.425 23.1729C37.425 19.6714 34.5764 16.8228 31.075 16.8228ZM27.4165 25.272C27.4165 33.1491 22.4095 39.975 14.925 42.3485C7.44063 39.975 2.43359 33.1491 2.43359 25.272V12.3418C10.6336 14.5642 19.2165 14.5642 27.4165 12.3418V25.272Z" fill="#007C8C"/>
<path d="M12.7915 25.4846C12.2576 25.4846 11.8247 25.0518 11.8247 24.5178C11.8247 23.5668 11.0509 22.793 10.0999 22.793C9.14879 22.793 8.375 23.5668 8.375 24.5178C8.375 25.0518 7.94214 25.4846 7.4082 25.4846C6.87427 25.4846 6.44141 25.0518 6.44141 24.5178C6.44141 22.5006 8.08259 20.8594 10.0999 20.8594C12.1171 20.8594 13.7583 22.5006 13.7583 24.5178C13.7583 25.0518 13.3254 25.4846 12.7915 25.4846Z" fill="#00CB8D"/>
<path d="M22.4399 25.4846C21.906 25.4846 21.4731 25.0518 21.4731 24.5178C21.4731 23.5668 20.6994 22.793 19.7483 22.793C18.7972 22.793 18.0234 23.5668 18.0234 24.5178C18.0234 25.0518 17.5906 25.4846 17.0566 25.4846C16.5227 25.4846 16.0898 25.0518 16.0898 24.5178C16.0898 22.5006 17.731 20.8594 19.7483 20.8594C21.7656 20.8594 23.4067 22.5006 23.4067 24.5178C23.4067 25.0518 22.9739 25.4846 22.4399 25.4846Z" fill="#00CB8D"/>
</g>
<defs>
<clipPath id="clip0_577_18119">
<rect width="45" height="45" fill="white" transform="translate(0.5)"/>
</clipPath>
</defs>
</svg>
