<svg width="15" height="16" viewBox="0 0 15 16" fill="none" xmlns="http://www.w3.org/2000/svg">
<path d="M13.1882 8.11961L10.4873 7.71478C10.0457 7.64859 9.61058 7.8688 9.40236 8.26382L9.11914 8.80112C9.69175 8.6575 10.225 8.56407 10.6974 8.56407C11.7913 8.56407 12.5268 9.07907 12.6936 10.1698L12.8768 10.1973C13.4507 10.2833 13.9854 9.88786 14.0713 9.31414C14.1574 8.74043 13.762 8.20563 13.1882 8.11961Z" fill="#00CB8D"/>
<path d="M5.12908 5.79447C4.96302 5.88273 4.81807 5.99498 4.69531 6.12421C5.02466 6.83989 5.29773 7.79913 5.51756 8.56019C5.6107 8.88268 5.83462 9.15855 6.13191 9.31713C6.31289 9.41365 6.51691 9.46468 6.72195 9.46468C6.85136 9.46468 6.97948 9.44472 7.10275 9.40532C7.662 9.22662 8.19729 9.05426 8.70648 8.91187L7.73876 7.09125L9.95882 5.44028C10.4243 5.0941 10.5211 4.43605 10.1749 3.97053C9.82872 3.505 9.17061 3.40829 8.70512 3.75447L6.19855 5.6185C5.84486 5.5604 5.47003 5.61323 5.12908 5.79447Z" fill="#00CB8D"/>
<path d="M10.6974 9.34286C9.82592 9.34286 8.59374 9.74564 7.34036 10.146C7.13874 10.2104 6.93039 10.2423 6.72272 10.2423C6.3923 10.2423 6.06357 10.1617 5.76644 10.0031C5.28255 9.74506 4.92277 9.30232 4.7706 8.77545C4.266 7.02836 3.73646 5.1971 2.80196 5.43032C1.2721 5.81214 0.521077 8.08168 1.12451 10.4995C1.443 11.7757 2.07516 12.8379 2.82608 13.5005C2.90521 13.584 2.99126 13.6633 3.0831 13.7386C3.05384 13.9514 2.87137 15.2784 2.84182 15.4932C2.81916 15.6579 2.94737 15.8047 3.11343 15.8047H8.93687C9.10315 15.8047 9.2311 15.6577 9.20848 15.4932C9.18614 15.3309 9.02936 14.1906 9.00855 14.0393C11.012 13.1757 12.251 11.557 11.8846 10.0887C11.7487 9.54389 11.313 9.34286 10.6974 9.34286Z" fill="#00CB8D"/>
<path d="M3.84411 4.94089C5.52033 5.20895 6.81993 3.43576 6.00855 1.90931C5.46919 0.894511 4.20925 0.509152 3.19445 1.04854C2.17966 1.58792 1.7943 2.84787 2.33372 3.86267C2.647 4.45205 3.21285 4.83995 3.84411 4.94089Z" fill="#00CB8D"/>
</svg>
